<svg width="15" height="15" viewBox="0 0 15 15" fill="none" xmlns="http://www.w3.org/2000/svg">
<path d="M8.6375 13.75H6.3625C6.21996 13.75 6.08169 13.7013 5.97063 13.612C5.85956 13.5226 5.78238 13.398 5.75188 13.2588L5.4975 12.0812C5.15816 11.9326 4.8364 11.7466 4.53813 11.5269L3.39 11.8925C3.2541 11.9358 3.10747 11.9314 2.97445 11.8799C2.84143 11.8284 2.73003 11.7329 2.65875 11.6094L1.51875 9.64C1.44822 9.51633 1.42174 9.37239 1.44365 9.23172C1.46556 9.09105 1.53457 8.96198 1.63938 8.86563L2.53 8.05313C2.4895 7.68507 2.4895 7.31368 2.53 6.94562L1.63938 6.135C1.53442 6.03861 1.46532 5.90942 1.44341 5.76861C1.42149 5.62781 1.44806 5.48373 1.51875 5.36L2.65625 3.38937C2.72753 3.26582 2.83893 3.17037 2.97195 3.11887C3.10497 3.06737 3.2516 3.06291 3.3875 3.10625L4.53563 3.47187C4.68813 3.35937 4.84688 3.25437 5.01063 3.15937C5.16875 3.07062 5.33125 2.99 5.4975 2.91813L5.7525 1.74187C5.78286 1.60262 5.8599 1.47793 5.97084 1.38847C6.08179 1.29901 6.21998 1.25015 6.3625 1.25H8.6375C8.78002 1.25015 8.91821 1.29901 9.02916 1.38847C9.14011 1.47793 9.21714 1.60262 9.2475 1.74187L9.505 2.91875C9.8439 3.06829 10.1656 3.25417 10.4644 3.47313L11.6131 3.1075C11.7489 3.06432 11.8954 3.06886 12.0283 3.12035C12.1612 3.17184 12.2725 3.26721 12.3437 3.39063L13.4812 5.36125C13.6262 5.61563 13.5763 5.9375 13.3606 6.13563L12.47 6.94812C12.5105 7.31618 12.5105 7.68757 12.47 8.05562L13.3606 8.86813C13.5763 9.06688 13.6262 9.38813 13.4812 9.6425L12.3437 11.6131C12.2725 11.7367 12.1611 11.8321 12.0281 11.8836C11.895 11.9351 11.7484 11.9396 11.6125 11.8963L10.4644 11.5306C10.1663 11.7502 9.84477 11.9359 9.50563 12.0844L9.2475 13.2588C9.21702 13.3979 9.13993 13.5224 9.02899 13.6118C8.91806 13.7011 8.77994 13.7499 8.6375 13.75V13.75ZM7.4975 5C6.83446 5 6.19857 5.26339 5.72973 5.73223C5.26089 6.20107 4.9975 6.83696 4.9975 7.5C4.9975 8.16304 5.26089 8.79893 5.72973 9.26777C6.19857 9.73661 6.83446 10 7.4975 10C8.16054 10 8.79643 9.73661 9.26527 9.26777C9.73411 8.79893 9.9975 8.16304 9.9975 7.5C9.9975 6.83696 9.73411 6.20107 9.26527 5.73223C8.79643 5.26339 8.16054 5 7.4975 5V5Z" fill="#AAB1AE"/>
</svg>
