<svg width="20" height="20" viewBox="0 0 20 20" fill="none" xmlns="http://www.w3.org/2000/svg">
<path d="M10 3.33333V0.833328L6.66667 4.16666L10 7.5V5C12.7583 5 15 7.24166 15 10C15 10.8417 14.7917 11.6417 14.4167 12.3333L15.6333 13.55C16.3085 12.4891 16.667 11.2575 16.6667 10C16.6667 6.31666 13.6833 3.33333 10 3.33333ZM10 15C7.24167 15 5 12.7583 5 10C5 9.15833 5.20833 8.35833 5.58333 7.66666L4.36667 6.44999C3.69146 7.5109 3.33298 8.74245 3.33333 10C3.33333 13.6833 6.31667 16.6667 10 16.6667V19.1667L13.3333 15.8333L10 12.5V15Z" fill="#FDFBFB"/>
</svg>
