<svg width="20" height="20" viewBox="0 0 20 20" fill="none" xmlns="http://www.w3.org/2000/svg">
<path d="M8.33333 14.1667H13.3333V5C13.3333 4.55798 13.1577 4.13405 12.8452 3.82149C12.5326 3.50893 12.1087 3.33334 11.6667 3.33334H3.33333C2.89131 3.33334 2.46738 3.50893 2.15482 3.82149C1.84226 4.13405 1.66667 4.55798 1.66667 5V13.3333C1.66667 13.5543 1.75446 13.7663 1.91074 13.9226C2.06702 14.0789 2.27899 14.1667 2.5 14.1667H3.33333M18.3333 11.6667H16.6667M18.3333 13.3333V10C18.3333 9.11595 17.9821 8.2681 17.357 7.64298C16.7319 7.01786 15.8841 6.66667 15 6.66667H13.3333V14.1667H17.5C17.721 14.1667 17.933 14.0789 18.0893 13.9226C18.2455 13.7663 18.3333 13.5543 18.3333 13.3333ZM12.5 14.1667C12.5 14.8297 12.7634 15.4656 13.2322 15.9344C13.7011 16.4033 14.337 16.6667 15 16.6667C15.663 16.6667 16.2989 16.4033 16.7678 15.9344C17.2366 15.4656 17.5 14.8297 17.5 14.1667H12.5Z" stroke="#FEFBFB" stroke-width="2" stroke-linecap="round" stroke-linejoin="round"/>
<path d="M5.83333 16.6667C7.21405 16.6667 8.33333 15.5474 8.33333 14.1667C8.33333 12.786 7.21405 11.6667 5.83333 11.6667C4.45262 11.6667 3.33333 12.786 3.33333 14.1667C3.33333 15.5474 4.45262 16.6667 5.83333 16.6667Z" stroke="#FEFBFB" stroke-width="2" stroke-linecap="round" stroke-linejoin="round"/>
</svg>
