<svg width="25" height="25" viewBox="0 0 25 25" fill="none" xmlns="http://www.w3.org/2000/svg">
<path d="M16.1458 14.5833L21.3542 19.7917L19.7917 21.3542L14.5833 16.1458V15.3229L14.3021 15.0312C13.0771 16.0874 11.5132 16.6678 9.89583 16.6667C8.1001 16.6667 6.37791 15.9533 5.10813 14.6835C3.83835 13.4138 3.125 11.6916 3.125 9.89583C3.125 8.1001 3.83835 6.37791 5.10813 5.10813C6.37791 3.83835 8.1001 3.125 9.89583 3.125C11.6916 3.125 13.4138 3.83835 14.6835 5.10813C15.9533 6.37791 16.6667 8.1001 16.6667 9.89583C16.6667 11.5729 16.0521 13.1146 15.0312 14.3021L15.3229 14.5833H16.1458ZM9.89583 14.5833C12.5 14.5833 14.5833 12.5 14.5833 9.89583C14.5833 7.29167 12.5 5.20833 9.89583 5.20833C7.29167 5.20833 5.20833 7.29167 5.20833 9.89583C5.20833 12.5 7.29167 14.5833 9.89583 14.5833ZM12.5 10.4167H10.4167V12.5H9.375V10.4167H7.29167V9.375H9.375V7.29167H10.4167V9.375H12.5V10.4167Z" fill="#DFD7D7"/>
</svg>
