<svg width="30" height="30" viewBox="0 0 30 30" fill="none" xmlns="http://www.w3.org/2000/svg">
<path d="M5 5H18.75C19.413 5 20.0489 5.26339 20.5178 5.73223C20.9866 6.20107 21.25 6.83696 21.25 7.5V16.25C21.25 16.913 20.9866 17.5489 20.5178 18.0178C20.0489 18.4866 19.413 18.75 18.75 18.75H5C4.33696 18.75 3.70107 18.4866 3.23223 18.0178C2.76339 17.5489 2.5 16.913 2.5 16.25V7.5C2.5 6.83696 2.76339 6.20107 3.23223 5.73223C3.70107 5.26339 4.33696 5 5 5V5ZM18.75 6.875H5C4.83424 6.875 4.67527 6.94085 4.55806 7.05806C4.44085 7.17527 4.375 7.33424 4.375 7.5V16.25C4.375 16.4158 4.44085 16.5747 4.55806 16.6919C4.67527 16.8092 4.83424 16.875 5 16.875H18.75C18.9158 16.875 19.0747 16.8092 19.1919 16.6919C19.3092 16.5747 19.375 16.4158 19.375 16.25V7.5C19.375 7.33424 19.3092 7.17527 19.1919 7.05806C19.0747 6.94085 18.9158 6.875 18.75 6.875ZM5.70375 20C5.84234 20.5367 6.15539 21.0122 6.59368 21.3516C7.03198 21.691 7.57065 21.8751 8.125 21.875H19.375C20.7011 21.875 21.9729 21.3482 22.9105 20.4105C23.8482 19.4729 24.375 18.2011 24.375 16.875V10.625C24.3751 10.0707 24.191 9.53198 23.8516 9.09368C23.5122 8.65539 23.0367 8.34234 22.5 8.20375V16.875C22.5 17.7038 22.1708 18.4987 21.5847 19.0847C20.9987 19.6708 20.2038 20 19.375 20H5.70375ZM8.82875 23.125C8.96734 23.6617 9.28039 24.1372 9.71868 24.4766C10.157 24.816 10.6957 25.0001 11.25 25H20.3125C22.2187 25 24.0469 24.2427 25.3948 22.8948C26.7427 21.5469 27.5 19.7187 27.5 17.8125V13.75C27.5001 13.1957 27.316 12.657 26.9766 12.2187C26.6372 11.7804 26.1617 11.4673 25.625 11.3287V17.8125C25.625 19.2215 25.0653 20.5727 24.069 21.569C23.0727 22.5653 21.7215 23.125 20.3125 23.125H8.82875Z" fill="#FFFCFC"/>
</svg>
