<svg width="25" height="25" viewBox="0 0 25 25" fill="none" xmlns="http://www.w3.org/2000/svg">
<g clip-path="url(#clip0_320_12)">
<path d="M4.16667 6.25V21.5278C4.16021 21.795 4.20647 22.0609 4.30279 22.3102C4.39912 22.5596 4.54364 22.7875 4.72808 22.9809C4.91252 23.1744 5.13328 23.3297 5.37773 23.4378C5.62219 23.5459 5.88556 23.6048 6.15278 23.6111H18.8125C19.0827 23.6093 19.3498 23.5538 19.5983 23.4477C19.8467 23.3416 20.0716 23.1871 20.2597 22.9931C20.4478 22.7992 20.5954 22.5697 20.6939 22.3182C20.7924 22.0666 20.8398 21.7979 20.8333 21.5278V6.25H4.16667ZM10.4167 20.1389H9.02778V9.72222H10.4167V20.1389ZM15.9722 20.1389H14.5833V9.72222H15.9722V20.1389Z" fill="#EDEDED"/>
<path d="M21.3403 3.47222H15.9722V2.77777C15.9722 2.40942 15.8259 2.05615 15.5654 1.79568C15.305 1.53521 14.9517 1.38889 14.5833 1.38889H10.2778C9.93399 1.42343 9.61543 1.58488 9.38429 1.8417C9.15315 2.09851 9.02604 2.43226 9.02777 2.77777V3.47222H3.47222C3.28804 3.47222 3.1114 3.54538 2.98117 3.67562C2.85094 3.80585 2.77777 3.98249 2.77777 4.16666C2.77777 4.35084 2.85094 4.52748 2.98117 4.65771C3.1114 4.78794 3.28804 4.86111 3.47222 4.86111H21.3403C21.5245 4.86111 21.7011 4.78794 21.8313 4.65771C21.9616 4.52748 22.0347 4.35084 22.0347 4.16666C22.0347 3.98249 21.9616 3.80585 21.8313 3.67562C21.7011 3.54538 21.5245 3.47222 21.3403 3.47222Z" fill="#EDEDED"/>
</g>
<defs>
<clipPath id="clip0_320_12">
<rect width="25" height="25" fill="white"/>
</clipPath>
</defs>
</svg>
