<svg width="30" height="30" viewBox="0 0 30 30" fill="none" xmlns="http://www.w3.org/2000/svg">
<path d="M26.2236 5.625H19.6875V2.8125C19.6875 2.56386 19.5887 2.3254 19.4129 2.14959C19.2371 1.97377 18.9986 1.875 18.75 1.875H11.25C11.0014 1.875 10.7629 1.97377 10.5871 2.14959C10.4113 2.3254 10.3125 2.56386 10.3125 2.8125V5.625H3.77637L3.75 7.96875H5.68359L6.86074 26.3672C6.89054 26.843 7.10044 27.2895 7.44777 27.6161C7.79509 27.9426 8.25375 28.1246 8.73047 28.125H21.2695C21.746 28.1249 22.2045 27.9435 22.552 27.6175C22.8995 27.2916 23.1099 26.8456 23.1404 26.3701L24.3164 7.96875H26.25L26.2236 5.625ZM10.3125 24.375L9.78516 9.375H11.7188L12.2461 24.375H10.3125ZM15.9375 24.375H14.0625V9.375H15.9375V24.375ZM17.3438 5.625H12.6562V3.98438C12.6562 3.92221 12.6809 3.8626 12.7249 3.81865C12.7689 3.77469 12.8285 3.75 12.8906 3.75H17.1094C17.1715 3.75 17.2311 3.77469 17.2751 3.81865C17.3191 3.8626 17.3438 3.92221 17.3438 3.98438V5.625ZM19.6875 24.375H17.7539L18.2812 9.375H20.2148L19.6875 24.375Z" fill="#AE1515"/>
</svg>
