<svg width="20" height="20" viewBox="0 0 20 20" fill="none" xmlns="http://www.w3.org/2000/svg">
<path d="M3.31417 8.19999C3.34769 7.78233 3.5373 7.39261 3.84523 7.10846C4.15317 6.82431 4.55683 6.66657 4.97584 6.66666H15.0242C15.4432 6.66657 15.8468 6.82431 16.1548 7.10846C16.4627 7.39261 16.6523 7.78233 16.6858 8.19999L17.355 16.5333C17.3734 16.7627 17.3441 16.9933 17.269 17.2108C17.1939 17.4282 17.0746 17.6278 16.9186 17.7969C16.7626 17.9659 16.5733 18.1009 16.3625 18.1932C16.1518 18.2856 15.9242 18.3333 15.6942 18.3333H4.30584C4.07577 18.3333 3.84821 18.2856 3.63749 18.1932C3.42676 18.1009 3.23743 17.9659 3.08142 17.7969C2.92541 17.6278 2.80609 17.4282 2.73098 17.2108C2.65587 16.9933 2.6266 16.7627 2.64501 16.5333L3.31417 8.19999V8.19999Z" stroke="white" stroke-width="2" stroke-linecap="round" stroke-linejoin="round"/>
<path d="M13.3333 9.16666V4.99999C13.3333 4.11593 12.9821 3.26809 12.357 2.64297C11.7319 2.01785 10.8841 1.66666 10 1.66666C9.11595 1.66666 8.2681 2.01785 7.64298 2.64297C7.01786 3.26809 6.66667 4.11593 6.66667 4.99999V9.16666" stroke="white" stroke-width="2" stroke-linecap="round" stroke-linejoin="round"/>
</svg>
