<svg width="20" height="20" viewBox="0 0 20 20" fill="none" xmlns="http://www.w3.org/2000/svg">
<path d="M20 6.25968C20 5.56936 19.4404 5.00968 18.75 5.00968H16.6163C17.1685 4.46499 17.5219 3.75095 17.5219 2.87155C17.5219 1.78874 16.9 0.612488 15.1544 0.612488C12.8575 0.612488 10.9388 3.05811 10.0372 4.42905C9.13505 3.05843 7.15755 0.6128 4.86098 0.6128C3.11536 0.6128 2.49348 1.78905 2.49348 2.87186C2.49348 3.75093 2.85661 4.4653 3.42005 5.00999H1.25005C0.559733 5.00999 4.57764e-05 5.56968 4.57764e-05 6.25999V10.0016H1.26098V18.1375C1.26098 18.8278 1.82065 19.3875 2.51098 19.3875H17.5047C18.195 19.3875 18.7547 18.8278 18.7547 18.1375V10.0012H20V6.25968H20ZM15.1544 1.8628C15.9272 1.8628 16.2719 2.18751 16.2719 2.87188C16.2719 4.26032 14.7222 5.00936 13.2647 5.00936H11.1488C12.0369 3.6903 13.6 1.8628 15.1544 1.8628ZM4.86096 1.86282C6.41565 1.86282 8.03782 3.69032 8.92594 5.00907H6.80938C5.35188 5.00907 3.74344 4.24063 3.74344 2.8522C3.74344 2.16813 4.08813 1.86282 4.86096 1.86282ZM18.75 8.75124H10.625V6.25968H18.75V8.75124V8.75124ZM1.25003 6.25968H9.37503V8.75124H1.25003V6.25968ZM2.51096 10.0012H9.37503V18.1372H2.51096V10.0012ZM17.505 18.1372H10.625V10.0012H17.505V18.1372V18.1372Z" fill="#AAB1AE"/>
</svg>
