<svg width="20" height="20" viewBox="0 0 20 20" fill="none" xmlns="http://www.w3.org/2000/svg">
<path d="M7.5 10C8.49456 10 9.44839 9.60491 10.1517 8.90165C10.8549 8.19839 11.25 7.24456 11.25 6.25C11.25 5.25544 10.8549 4.30161 10.1517 3.59835C9.44839 2.89509 8.49456 2.5 7.5 2.5C6.50544 2.5 5.55161 2.89509 4.84835 3.59835C4.14509 4.30161 3.75 5.25544 3.75 6.25C3.75 7.24456 4.14509 8.19839 4.84835 8.90165C5.55161 9.60491 6.50544 10 7.5 10V10ZM1.25 17.5C1.25 17.5 0 17.5 0 16.25C0 15 1.25 11.25 7.5 11.25C13.75 11.25 15 15 15 16.25C15 17.5 13.75 17.5 13.75 17.5H1.25ZM13.75 4.375C13.75 4.20924 13.8158 4.05027 13.9331 3.93306C14.0503 3.81585 14.2092 3.75 14.375 3.75H19.375C19.5408 3.75 19.6997 3.81585 19.8169 3.93306C19.9342 4.05027 20 4.20924 20 4.375C20 4.54076 19.9342 4.69973 19.8169 4.81694C19.6997 4.93415 19.5408 5 19.375 5H14.375C14.2092 5 14.0503 4.93415 13.9331 4.81694C13.8158 4.69973 13.75 4.54076 13.75 4.375ZM14.375 7.5C14.2092 7.5 14.0503 7.56585 13.9331 7.68306C13.8158 7.80027 13.75 7.95924 13.75 8.125C13.75 8.29076 13.8158 8.44973 13.9331 8.56694C14.0503 8.68415 14.2092 8.75 14.375 8.75H19.375C19.5408 8.75 19.6997 8.68415 19.8169 8.56694C19.9342 8.44973 20 8.29076 20 8.125C20 7.95924 19.9342 7.80027 19.8169 7.68306C19.6997 7.56585 19.5408 7.5 19.375 7.5H14.375ZM16.875 11.25C16.7092 11.25 16.5503 11.3158 16.4331 11.4331C16.3158 11.5503 16.25 11.7092 16.25 11.875C16.25 12.0408 16.3158 12.1997 16.4331 12.3169C16.5503 12.4342 16.7092 12.5 16.875 12.5H19.375C19.5408 12.5 19.6997 12.4342 19.8169 12.3169C19.9342 12.1997 20 12.0408 20 11.875C20 11.7092 19.9342 11.5503 19.8169 11.4331C19.6997 11.3158 19.5408 11.25 19.375 11.25H16.875ZM16.875 15C16.7092 15 16.5503 15.0658 16.4331 15.1831C16.3158 15.3003 16.25 15.4592 16.25 15.625C16.25 15.7908 16.3158 15.9497 16.4331 16.0669C16.5503 16.1842 16.7092 16.25 16.875 16.25H19.375C19.5408 16.25 19.6997 16.1842 19.8169 16.0669C19.9342 15.9497 20 15.7908 20 15.625C20 15.4592 19.9342 15.3003 19.8169 15.1831C19.6997 15.0658 19.5408 15 19.375 15H16.875Z" fill="white"/>
</svg>
