<svg width="20" height="20" viewBox="0 0 20 20" fill="none" xmlns="http://www.w3.org/2000/svg">
<g clip-path="url(#clip0_201_2)">
<path d="M6.66667 1.66666H3.33334C2.41286 1.66666 1.66667 2.41285 1.66667 3.33332V16.6667C1.66667 17.5871 2.41286 18.3333 3.33334 18.3333H6.66667C7.58715 18.3333 8.33334 17.5871 8.33334 16.6667V3.33332C8.33334 2.41285 7.58715 1.66666 6.66667 1.66666Z" stroke="#AAB1AE" stroke-width="2" stroke-linecap="round" stroke-linejoin="round"/>
<path d="M16.6667 1.66666H13.3333C12.4129 1.66666 11.6667 2.41285 11.6667 3.33332V6.66666C11.6667 7.58713 12.4129 8.33332 13.3333 8.33332H16.6667C17.5871 8.33332 18.3333 7.58713 18.3333 6.66666V3.33332C18.3333 2.41285 17.5871 1.66666 16.6667 1.66666Z" stroke="#AAB1AE" stroke-width="2" stroke-linecap="round" stroke-linejoin="round"/>
<path d="M16.6667 11.6667H13.3333C12.4129 11.6667 11.6667 12.4128 11.6667 13.3333V16.6667C11.6667 17.5871 12.4129 18.3333 13.3333 18.3333H16.6667C17.5871 18.3333 18.3333 17.5871 18.3333 16.6667V13.3333C18.3333 12.4128 17.5871 11.6667 16.6667 11.6667Z" stroke="#AAB1AE" stroke-width="2" stroke-linecap="round" stroke-linejoin="round"/>
</g>
<defs>
<clipPath id="clip0_201_2">
<rect width="20" height="20" fill="white"/>
</clipPath>
</defs>
</svg>
