<svg width="14" height="18" viewBox="0 0 14 18" fill="none" xmlns="http://www.w3.org/2000/svg">
<path d="M10.3333 5.66666H3.66666V3.99999H10.3333V5.66666ZM10.3333 7.33332H3.66666V8.99999H10.3333V7.33332ZM13.6667 2.33332V12.3333L8.66666 17.3333H1.99999C1.55797 17.3333 1.13404 17.1577 0.821484 16.8452C0.508923 16.5326 0.333328 16.1087 0.333328 15.6667V2.33332C0.333328 1.8913 0.508923 1.46737 0.821484 1.15481C1.13404 0.842251 1.55797 0.666656 1.99999 0.666656H12C12.442 0.666656 12.8659 0.842251 13.1785 1.15481C13.4911 1.46737 13.6667 1.8913 13.6667 2.33332ZM12 10.6667V2.33332H1.99999V15.6667H6.99999V12.3333C6.99999 11.8913 7.17559 11.4674 7.48815 11.1548C7.80071 10.8423 8.22463 10.6667 8.66666 10.6667H12Z" fill="white"/>
</svg>
