<svg width="20" height="20" viewBox="0 0 20 20" fill="none" xmlns="http://www.w3.org/2000/svg">
<path d="M13.3333 6.66666H6.66666V4.99999H13.3333V6.66666ZM13.3333 8.33332H6.66666V9.99999H13.3333V8.33332ZM16.6667 3.33332V13.3333L11.6667 18.3333H4.99999C4.55797 18.3333 4.13404 18.1577 3.82148 17.8452C3.50892 17.5326 3.33333 17.1087 3.33333 16.6667V3.33332C3.33333 2.8913 3.50892 2.46737 3.82148 2.15481C4.13404 1.84225 4.55797 1.66666 4.99999 1.66666H15C15.442 1.66666 15.8659 1.84225 16.1785 2.15481C16.4911 2.46737 16.6667 2.8913 16.6667 3.33332ZM15 11.6667V3.33332H4.99999V16.6667H9.99999V13.3333C9.99999 12.8913 10.1756 12.4674 10.4882 12.1548C10.8007 11.8423 11.2246 11.6667 11.6667 11.6667H15Z" fill="#AAB1AE"/>
</svg>
