<svg width="20" height="20" viewBox="0 0 20 20" fill="none" xmlns="http://www.w3.org/2000/svg">
<g clip-path="url(#clip0_201_19)">
<path d="M11.0547 10C13.6893 10 15.8251 8.13452 15.8251 5.83334C15.8251 3.53215 13.6893 1.66667 11.0547 1.66667C8.42005 1.66667 6.28427 3.53215 6.28427 5.83334C6.28427 8.13452 8.42005 10 11.0547 10Z" stroke="white" stroke-width="2"/>
<path d="M15.825 11.6667H16.1609C16.8584 11.6668 17.5318 11.8895 18.0546 12.2927C18.5775 12.696 18.9137 13.2521 19.0002 13.8567L19.3733 16.46C19.4068 16.6945 19.3829 16.9326 19.303 17.1584C19.2232 17.3843 19.0893 17.5927 18.9102 17.7698C18.7311 17.947 18.5109 18.0889 18.2642 18.186C18.0175 18.2832 17.75 18.3334 17.4794 18.3333H4.62988C4.35929 18.3334 4.09178 18.2832 3.8451 18.186C3.59843 18.0889 3.37823 17.947 3.19913 17.7698C3.02002 17.5927 2.8861 17.3843 2.80626 17.1584C2.72642 16.9326 2.70249 16.6945 2.73604 16.46L3.10813 13.8567C3.19466 13.2519 3.53118 12.6955 4.05442 12.2922C4.57765 11.8889 5.25154 11.6664 5.94938 11.6667H6.28426" stroke="white" stroke-width="2" stroke-linecap="round" stroke-linejoin="round"/>
</g>
<defs>
<clipPath id="clip0_201_19">
<rect width="20" height="20" fill="white"/>
</clipPath>
</defs>
</svg>
